<?xml version="1.0" encoding="UTF-8" standalone="no"?>
<!-- Created with Inkscape (http://www.inkscape.org/) -->

<svg
   width="1300"
   height="150"
   viewBox="0 0 343.95832 39.6875"
   version="1.1"
   id="svg1"
   xmlns="http://www.w3.org/2000/svg"
   xmlns:svg="http://www.w3.org/2000/svg">
  <defs
     id="defs1" />
  <g
     id="layer1"
     transform="translate(-25.401551,-162.70231)">
    <path
       id="rect44"
       style="fill:#000000;stroke-width:0.494414;stroke-linecap:round;paint-order:stroke fill markers"
       d="m 25.40155,162.70231 v 13.22916 13.22917 13.22917 h 13.229167 v -6.61459 -6.61458 -13.22917 -13.22916 z m 13.229167,33.07291 a 6.614584,6.6145821 0 0 0 6.614583,6.61459 6.614584,6.6145821 0 0 0 6.614583,-6.61459 6.614584,6.6145821 0 0 0 -6.614583,-6.61458 6.614584,6.6145821 0 0 0 -6.614583,6.61458 z m 13.229166,0 v 6.61459 H 65.08905 v -6.61459 -6.61458 -13.22917 h -6.614584 -6.614583 v 13.22917 z m 6.614583,-19.84375 a 6.614584,6.6145821 0 0 0 6.614584,-6.61458 6.614584,6.6145821 0 0 0 -6.614584,-6.61458 6.614584,6.6145821 0 0 0 -6.614583,6.61458 6.614584,6.6145821 0 0 0 6.614583,6.61458 z m 6.614584,19.84375 a 6.614584,6.6145821 0 0 0 6.614583,6.61459 6.614584,6.6145821 0 0 0 6.614583,-6.61459 6.614584,6.6145821 0 0 0 -6.614583,-6.61458 6.614584,6.6145821 0 0 0 -6.614583,6.61458 z m 13.229166,0 v 6.61459 h 13.229167 13.229167 13.22917 v -13.22917 -13.22917 -6.61458 -6.61458 h -13.22917 v 6.61458 6.61458 h -6.614584 -6.614583 v -6.61458 -6.61458 H 78.318216 v 13.22916 13.22917 z m 13.229167,-26.45833 a 6.614584,6.6145821 0 0 0 6.614583,6.61458 6.614584,6.6145821 0 0 0 6.614584,-6.61458 6.614584,6.6145821 0 0 0 -6.614584,-6.61458 6.614584,6.6145821 0 0 0 -6.614583,6.61458 z m 26.458337,0 a 6.614584,6.6145821 0 0 0 6.61458,6.61458 6.614584,6.6145821 0 0 0 6.61458,-6.61458 6.614584,6.6145821 0 0 0 -6.61458,-6.61458 6.614584,6.6145821 0 0 0 -6.61458,6.61458 z m 13.22916,0 v 6.61458 13.22917 13.22917 h 13.22917 v -6.61459 -6.61458 -6.61458 -6.61459 -6.61458 -6.61458 h -13.22917 z m 13.22917,0 a 6.614584,6.6145821 0 0 0 6.61458,6.61458 6.614584,6.6145821 0 0 0 6.61459,-6.61458 6.614584,6.6145821 0 0 0 -6.61459,-6.61458 6.614584,6.6145821 0 0 0 -6.61458,6.61458 z m 13.22917,0 v 6.61458 6.61459 6.61458 6.61458 6.61459 h 13.22916 v -13.22917 -13.22917 -6.61458 -6.61458 h -13.22916 z m 13.22916,0 a 6.614584,6.6145821 0 0 0 6.61459,6.61458 6.614584,6.6145821 0 0 0 6.61458,-6.61458 6.614584,6.6145821 0 0 0 -6.61458,-6.61458 6.614584,6.6145821 0 0 0 -6.61459,6.61458 z m 13.22917,0 v 6.61458 13.22917 13.22917 h 13.22916 v -13.22917 -13.22917 -6.61458 -6.61458 h -13.22916 z m 13.22916,0 a 6.614584,6.6145821 0 0 0 6.61459,6.61458 6.614584,6.6145821 0 0 0 6.61458,-6.61458 6.614584,6.6145821 0 0 0 -6.61458,-6.61458 6.614584,6.6145821 0 0 0 -6.61459,6.61458 z m 13.22917,0 v 6.61458 13.22917 13.22917 h 13.22917 v -6.61459 -6.61458 -6.61458 -6.61459 -6.61458 -6.61458 h -13.22917 z m 13.22917,0 a 6.614584,6.6145821 0 0 0 6.61458,6.61458 6.614584,6.6145821 0 0 0 6.61458,-6.61458 6.614584,6.6145821 0 0 0 -6.61458,-6.61458 6.614584,6.6145821 0 0 0 -6.61458,6.61458 z m 6.61458,6.61458 a 6.614584,6.6145821 0 0 0 -6.61458,6.61459 6.614584,6.6145821 0 0 0 6.61458,6.61458 6.614584,6.6145821 0 0 0 6.61458,-6.61458 6.614584,6.6145821 0 0 0 -6.61458,-6.61459 z m 6.61458,6.61459 v 6.61458 6.61458 6.61459 h 13.22917 v -13.22917 -13.22917 h -13.22917 z m 0,13.22916 a 6.614584,6.6145821 0 0 0 -6.61458,-6.61458 6.614584,6.6145821 0 0 0 -6.61458,6.61458 6.614584,6.6145821 0 0 0 6.61458,6.61459 6.614584,6.6145821 0 0 0 6.61458,-6.61459 z m -79.37499,0 a 6.614584,6.6145821 0 0 0 -6.61459,-6.61458 6.614584,6.6145821 0 0 0 -6.61458,6.61458 6.614584,6.6145821 0 0 0 6.61458,6.61459 6.614584,6.6145821 0 0 0 6.61459,-6.61459 z m -6.61459,-6.61458 a 6.614584,6.6145821 0 0 0 6.61459,-6.61458 6.614584,6.6145821 0 0 0 -6.61459,-6.61459 6.614584,6.6145821 0 0 0 -6.61458,6.61459 6.614584,6.6145821 0 0 0 6.61458,6.61458 z m 105.83333,-26.45833 a 6.614584,6.6145821 0 0 0 -6.61458,6.61458 6.614584,6.6145821 0 0 0 6.61458,6.61458 6.614584,6.6145821 0 0 0 6.61459,-6.61458 6.614584,6.6145821 0 0 0 -6.61459,-6.61458 z m 26.45834,0 a 6.614584,6.6145821 0 0 0 -6.61459,6.61458 6.614584,6.6145821 0 0 0 6.61459,6.61458 6.614584,6.6145821 0 0 0 6.61458,-6.61458 6.614584,6.6145821 0 0 0 -6.61458,-6.61458 z m 26.45833,0 a 6.614584,6.6145821 0 0 0 -6.61458,6.61458 6.614584,6.6145821 0 0 0 6.61458,6.61458 6.614584,6.6145821 0 0 0 6.61458,-6.61458 6.614584,6.6145821 0 0 0 -6.61458,-6.61458 z m 19.84375,0 v 13.22916 6.61459 6.61458 13.22917 h 13.22917 13.22916 v -13.22917 -13.22917 -6.61458 -6.61458 h -13.22916 z m 26.45833,6.61458 a 6.614584,6.6145821 0 0 0 6.61459,6.61458 6.614584,6.6145821 0 0 0 6.61458,-6.61458 6.614584,6.6145821 0 0 0 -6.61458,-6.61458 6.614584,6.6145821 0 0 0 -6.61459,6.61458 z m -26.45833,13.22917 a 6.614584,6.6145821 0 0 0 -6.61458,-6.61459 6.614584,6.6145821 0 0 0 -6.61459,6.61459 6.614584,6.6145821 0 0 0 6.61459,6.61458 6.614584,6.6145821 0 0 0 6.61458,-6.61458 z m -66.14583,-6.61459 v 13.22917 h 13.22916 v -13.22917 z m 26.45833,0 v 13.22917 6.61458 6.61459 h 13.22917 v -13.22917 -13.22917 z m 0,19.84375 a 6.614584,6.6145821 0 0 0 -6.61458,-6.61458 6.614584,6.6145821 0 0 0 -6.61459,6.61458 6.614584,6.6145821 0 0 0 6.61459,6.61459 6.614584,6.6145821 0 0 0 6.61458,-6.61459 z" />
  </g>
</svg>
